<?xml version="1.0" encoding="utf-8"?>
<!-- Generator: Adobe Illustrator 19.2.1, SVG Export Plug-In . SVG Version: 6.00 Build 0)  -->
<svg version="1.1" id="Layer_1" xmlns="http://www.w3.org/2000/svg" xmlns:xlink="http://www.w3.org/1999/xlink" x="0px" y="0px"
	 viewBox="0 0 428.9 119.5" style="enable-background:new 0 0 428.9 119.5;" xml:space="preserve">
<style type="text/css">
	.st0{fill:#FFFFFF;}
</style>
<g>
	<path class="st0" d="M59.8,90.2c0,4.3-0.7,8.3-2.2,11.8c-1.5,3.6-3.6,6.6-6.3,9.2c-2.7,2.6-6,4.6-9.8,6.1
		c-3.8,1.4-8.1,2.2-12.7,2.2c-5.4,0-10.4-0.8-14.9-2.3c-4.5-1.5-8.8-4.2-12.9-7.9l7.3-9.1c2.8,3,5.8,5.3,9.1,6.9
		c3.3,1.6,7,2.3,11.2,2.3c4,0,7.3-0.6,10-1.7c2.6-1.2,4.7-2.7,6.3-4.5c1.6-1.8,2.7-3.9,3.3-6.3c0.6-2.4,1-4.7,1-7.1v-8.4h-0.4
		c-2.1,3.4-4.9,6-8.5,7.6c-3.6,1.6-7.3,2.5-11.2,2.5c-4.2,0-8-0.7-11.6-2.2c-3.6-1.5-6.6-3.5-9.2-6.1c-2.6-2.6-4.6-5.7-6-9.2
		C0.7,70.3,0,66.4,0,62.3c0-4.2,0.7-8.1,2-11.7c1.4-3.6,3.3-6.8,5.8-9.5c2.5-2.7,5.6-4.8,9.1-6.4c3.6-1.5,7.5-2.3,11.9-2.3
		c3.8,0,7.6,0.8,11.2,2.5c3.6,1.7,6.5,4,8.6,7.1H49v-8.2h10.8V90.2z M30.2,42.5c-2.9,0-5.5,0.5-7.8,1.5c-2.3,1-4.3,2.4-5.9,4.1
		c-1.6,1.7-2.8,3.8-3.7,6.2c-0.9,2.4-1.3,5.1-1.3,8c0,5.8,1.7,10.4,5,13.9s7.9,5.2,13.7,5.2c5.8,0,10.3-1.7,13.7-5.2
		c3.4-3.5,5-8.1,5-13.9c0-2.9-0.4-5.5-1.3-8c-0.9-2.4-2.1-4.5-3.7-6.2C42.3,46.3,40.4,45,38,44C35.7,43,33.1,42.5,30.2,42.5z"/>
	<path class="st0" d="M76.3,40.8c3-2.8,6.6-4.9,10.6-6.3c4-1.4,8-2.1,12-2.1c4.2,0,7.7,0.5,10.7,1.6c3,1,5.5,2.4,7.4,4.2
		c1.9,1.8,3.3,3.8,4.3,6.1c0.9,2.3,1.4,4.7,1.4,7.1v29c0,2,0,3.8,0.1,5.5c0.1,1.7,0.2,3.3,0.4,4.8h-9.6c-0.2-2.9-0.4-5.8-0.4-8.6
		h-0.2c-2.4,3.7-5.2,6.3-8.5,7.8c-3.3,1.5-7.1,2.3-11.4,2.3c-2.6,0-5.2-0.4-7.6-1.1c-2.4-0.7-4.5-1.8-6.3-3.2
		c-1.8-1.4-3.2-3.2-4.3-5.3c-1-2.1-1.6-4.6-1.6-7.4c0-3.7,0.8-6.8,2.5-9.2c1.6-2.5,3.9-4.5,6.7-6.1c2.8-1.6,6.2-2.7,10-3.4
		c3.8-0.7,7.9-1,12.2-1h7.9V53c0-1.4-0.3-2.9-0.8-4.3c-0.6-1.4-1.4-2.7-2.5-3.9c-1.1-1.2-2.5-2.1-4.2-2.8c-1.7-0.7-3.7-1-6-1
		c-2.1,0-3.9,0.2-5.5,0.6c-1.6,0.4-3,0.9-4.3,1.5c-1.3,0.6-2.4,1.3-3.5,2.1c-1,0.8-2,1.6-3,2.3L76.3,40.8z M106.8,63.4
		c-2.6,0-5.2,0.1-7.9,0.4c-2.7,0.3-5.1,0.8-7.3,1.6c-2.2,0.8-4,1.9-5.4,3.4c-1.4,1.4-2.1,3.3-2.1,5.5c0,3.3,1.1,5.6,3.3,7.1
		c2.2,1.4,5.2,2.2,8.9,2.2c3,0,5.5-0.5,7.6-1.5c2.1-1,3.8-2.3,5-3.9c1.3-1.6,2.2-3.4,2.8-5.3c0.6-2,0.8-3.9,0.8-5.8v-3.6H106.8z"/>
	<path class="st0" d="M139.2,0H150v90.7h-10.8V0z"/>
	<path class="st0" d="M165.5,13.4c0-2.2,0.8-4,2.3-5.6s3.4-2.3,5.6-2.3c2.2,0,4,0.8,5.6,2.3s2.3,3.4,2.3,5.6c0,2.2-0.8,4-2.3,5.6
		c-1.6,1.6-3.4,2.3-5.6,2.3c-2.2,0-4-0.8-5.6-2.3C166.3,17.5,165.5,15.6,165.5,13.4z M168,33.8h10.8v56.9H168V33.8z"/>
	<path class="st0" d="M196.8,0h10.8v90.7h-10.8V0z"/>
	<path class="st0" d="M232.9,66.2c0,2.5,0.5,4.7,1.6,6.8s2.5,3.8,4.3,5.2c1.8,1.4,3.8,2.6,6.1,3.4c2.3,0.8,4.7,1.2,7.2,1.2
		c3.4,0,6.3-0.8,8.8-2.3c2.5-1.6,4.8-3.6,6.8-6.2l8.2,6.2c-6,7.8-14.4,11.6-25.2,11.6c-4.5,0-8.5-0.8-12.2-2.3
		c-3.6-1.5-6.7-3.6-9.2-6.3c-2.5-2.7-4.5-5.8-5.8-9.5c-1.4-3.6-2-7.6-2-11.8c0-4.2,0.7-8.2,2.2-11.8c1.5-3.6,3.5-6.8,6.1-9.5
		c2.6-2.7,5.7-4.8,9.3-6.3c3.6-1.5,7.5-2.3,11.8-2.3c5,0,9.3,0.9,12.8,2.6c3.5,1.8,6.3,4.1,8.6,6.9c2.2,2.8,3.9,6,4.9,9.6
		c1,3.6,1.5,7.2,1.5,10.9v3.8H232.9z M267,57.6c-0.1-2.4-0.5-4.6-1.1-6.6c-0.7-2-1.7-3.7-3.1-5.2c-1.4-1.5-3.1-2.6-5.1-3.5
		s-4.4-1.3-7.1-1.3c-2.6,0-5.1,0.5-7.3,1.5c-2.2,1-4.1,2.3-5.6,3.9c-1.5,1.6-2.7,3.4-3.5,5.3c-0.8,2-1.3,3.9-1.3,5.8H267z"/>
</g>
<g>
	<path class="st0" d="M416.4,7.6l-4.6,2.1c2.6,1.6,4.7,3.9,6.1,6.9c1.4,2.9,1.8,6.1,1.3,9.1l4.6-2.1c4.4-2,6.3-7.3,4.3-11.7
		C426,7.5,420.8,5.6,416.4,7.6z"/>
	<path class="st0" d="M391.4,11L380.8,16c5.3,2.3,9.9,6.4,12.5,12.1c2.6,5.7,2.9,11.8,1.2,17.3l10.6-4.9c5.2-2.4,8.5-7.2,9.2-12.5
		c0.4-3,0-6.1-1.3-9.1c-1.4-2.9-3.5-5.3-6.1-6.9C402.3,9.2,396.6,8.6,391.4,11z"/>
	<path class="st0" d="M375.9,18.2c-6.1-2.6-13.3-2.8-19.8,0.3l-24.8,11.5c9.1,1.9,17.2,7.9,21.3,16.9s3.5,19.1-0.8,27.2l24.8-11.5
		c6.5-3,11-8.6,13-15c1.7-5.5,1.4-11.7-1.2-17.3C385.8,24.7,381.2,20.5,375.9,18.2z"/>
	<path class="st0" d="M325.4,32.8c-6.2-1.3-12.9-0.7-19.1,2.1c-15.2,7.1-21.8,25.2-14.8,40.4c7.1,15.2,25.2,21.8,40.4,14.8
		c6.2-2.9,10.9-7.6,13.9-13.2c4.4-8.2,5-18.2,0.8-27.2C342.5,40.7,334.4,34.7,325.4,32.8z M327.2,80.7c-10,4.6-21.8,0.3-26.4-9.7
		c-4.6-10-0.3-21.8,9.7-26.4c10-4.6,21.8-0.3,26.4,9.7C341.5,64.3,337.2,76.1,327.2,80.7z"/>
</g>
</svg>
