<svg width="30" height="48" xmlns="http://www.w3.org/2000/svg" xmlns:xlink="http://www.w3.org/1999/xlink" version="1.1" x="0px" y="0px" viewBox="0 0 30 48" enable-background="new 0 0 30 48" xml:space="preserve">
  <path
    fill="#828282"
    stroke="#222222"
    stroke-width="3"
    d="M36,0.5c-12.7,0-22.9,10.3-22.9,22.9c0,9.8,13.7,35.3,19.9,46.3c1.3,2.3,4.7,2.3,6,0  c6.2-11,19.9-36.5,19.9-46.3C58.9,10.8,48.7,0.5,36,0.5z M36,35.9c-6.3,0-11.4-5.1-11.4-11.4c0-6.3,5.1-11.4,11.4-11.4  c6.3,0,11.4,5.1,11.4,11.4C47.4,30.8,42.3,35.9,36,35.9z"></path>
</svg>
